# AST/ASF file generated using VICON BodyLanguage
# -----------------------------------------------
:version 1.10
:name VICON
:units
  mass 1.0
  length 0.45
  angle deg
:documentation
   .ast/.asf automatically generated from VICON data using
   VICON BodyBuilder and BodyLanguage model FoxedUp or BRILLIANT.MOD
:root
   order TX TY TZ RX RY RZ
   axis XYZ
   position 0 0 0  
   orientation 0 0 0 
:bonedata
  begin
     id 1 
     name lhipjoint
     direction 0.64773 -0.699417 0.302095 
     length 2.48597 
     axis 0 0 0  XYZ
  end
  begin
     id 2 
     name lfemur
     direction 0.34202 -0.939693 0  
     length 6.71947  
     axis 0 0 20  XYZ
    dof rx ry rz
    limits (-160.0 20.0)
           (-70.0 70.0)
           (-60.0 70.0)
  end
  begin
     id 3 
     name ltibia
     direction 0.34202 -0.939693 0   
     length 8.08777   
     axis 0 0 20   XYZ
    dof rx
    limits (-10.0 170.0)
  end
  begin
     id 4 
     name lfoot
     direction 0.0808503 -0.222134 0.971658   
     length 2.08264   
     axis -90 7.62852e-016 20   XYZ
    dof rx rz
    limits (-45.0 90.0)
           (-70.0 20.0)
  end
  begin
     id 5 
     name ltoes
     direction 1.53502e-011 -4.22007e-011 1   
     length 1.04662   
     axis -90 7.62852e-016 20   XYZ
    dof rx
    limits (-90.0 20.0)
  end
  begin
     id 6 
     name rhipjoint
     direction -0.610924 -0.726792 0.313919   
     length 2.39233  
     axis 0 0 0  XYZ 
  end
  begin
     id 7 
     name rfemur
     direction -0.34202 -0.939693 0   
     length 6.96955   
     axis 0 0 -20   XYZ
    dof rx ry rz
    limits (-160.0 20.0)
           (-70.0 70.0)
           (-70.0 60.0)
  end
  begin
     id 8 
     name rtibia
     direction -0.34202 -0.939693 0   
     length 8.19584   
     axis 0 0 -20   XYZ
    dof rx
    limits (-10.0 170.0)
 end
 begin
     id 9 
     name rfoot
     direction -0.077777 -0.213691 0.9738   
     length 2.07539  
     axis -90 -7.62852e-016 -20   XYZ
    dof rx rz
    limits (-45.0 90.0)
           (-20.0 70.0)
  end
  begin
     id 10 
     name rtoes
     direction -1.53558e-011 -4.22006e-011 1   
     length 1.04381   
     axis -90 -7.62852e-016 -20   XYZ
    dof rx
    limits (-90.0 20.0)
  end
  begin
     id 11 
     name lowerback
     direction -0.00971646 0.996074 0.0879841   
     length 1.67643   
     axis 0 0 0   XYZ
    dof rx ry rz
    limits (-20.0 45.0)
           (-30.0 30.0)
           (-30.0 30.0)
  end
  begin
     id 12 
     name upperback
     direction 0.0127391 0.991676 0.128127   
     length 1.63741   
     axis 0 0 0   XYZ
    dof rx ry rz
    limits (-20.0 45.0)
           (-30.0 30.0)
           (-30.0 30.0)
  end
  begin
     id 13 
     name thorax
     direction 0.0167583 0.996049 0.0872067   
     length 1.65931   
     axis 0 0 0   XYZ
    dof rx ry rz
    limits (-20.0 45.0)
           (-30.0 30.0)
           (-30.0 30.0)
  end
  begin
     id 14 
     name lowerneck
     direction -0.0317829 0.998312 0.0486079   
     length 1.79021   
     axis 0 0 0   XYZ
    dof rx ry rz
    limits (-20.0 45.0)
           (-30.0 30.0)
           (-30.0 30.0)
  end
  begin
     id 15 
     name upperneck
     direction 0.0896851 0.972452 -0.215159   
     length 1.78797   
     axis 0 0 0   XYZ
    dof rx ry rz
    limits (-20.0 45.0)
           (-30.0 30.0)
           (-30.0 30.0)
  end
  begin
     id 16
     name head
     direction 0.0310949 0.996503 -0.0775582  
     length 1.81549  
     axis 0 0 0   XYZ
    dof rx ry rz
    limits (-20.0 45.0)
           (-30.0 30.0)
           (-30.0 30.0)
  end
  begin
     id 17 
     name lclavicle
     direction 0.853638 0.502051 -0.138733  
     length 3.31627  
     axis 0 0 0   XYZ
    dof ry rz
    limits (-20.0 10.0)
           (0.0 20.0)
  end
  begin
     id 18 
     name lhumerus
     direction 1 -4.48962e-011 -1.41788e-018   
     length 5.54893   
     axis 180 -30 -90   XYZ
    dof rx ry rz
    limits (-60.0 90.0)
           (-90.0 90.0)
           (-90.0 90.0)
  end
  begin
     id 19
     name lradius
     direction 1 -4.48962e-011 -4.95754e-027   
     length 3.02898   
     axis 180 -30 -90   XYZ
    dof rx
    limits (-10.0 170.0)
  end
  begin
     id 20
     name lwrist
     direction 1 -4.48952e-011 -1.03764e-026   
     length 1.51449   
     axis 9.09556e-015 90 90   XYZ
    dof ry
    limits (-180.0 0.0)
 end
  begin
     id 21 
     name lhand
     direction 1 -4.4902e-011 -2.07528e-026   
     length 0.640951   
     axis 1.3242e-014 90 90   XYZ
    dof rx rz
    limits (-90.0 90.0)
           (-45.0 45.0)
  end
  begin
     id 22 
     name lfingers
     direction 1 -4.49014e-011 -4.15056e-026   
     length 0.516751   
     axis 2.64841e-014 90 90   XYZ
    dof rx
    limits (0.0 90.0)
  end
  begin
     id 23
     name lthumb
     direction 0.707107 -6.35008e-011 0.707107   
     length 0.741954   
     axis -90 45 2.85299e-015   XYZ
    dof rx rz
    limits (-45.0 45.0)
           (-45.0 45.0)
  end
  begin
     id 24 
     name rclavicle
     direction -0.888531 0.455324 -0.0565039   
     length 3.20126  
     axis 0 0 0   XYZ 
    dof ry rz
    limits (-10.0 20.0)
           (-20.0 0.0)
  end
  begin
     id 25 
     name rhumerus
     direction -1 -4.48946e-011 -8.98298e-028  
     length 5.3519   
     axis 180 30 90   XYZ
    dof rx ry rz
    limits (-90.0 60.0)
           (-90.0 90.0)
           (-90.0 90.0)
  end
  begin
     id 26 
     name rradius
     direction -1 -4.4899e-011 -3.18779e-027   
     length 3.02531   
     axis 180 30 90   XYZ
    dof rx
    limits (-10.0 170.0)
  end
  begin
     id 27 
     name rwrist
     direction -1 -4.4897e-011 -1.03764e-026   
     length 1.51266   
     axis 9.09556e-015 -90 -90   XYZ
    dof ry
    limits (-180.0 0.0)
  end
  begin
     id 28
     name rhand
     direction -1 -4.48941e-011 -2.07528e-026   
     length 0.78389   
     axis 1.3242e-014 -90 -90   XYZ
    dof rx rz
    limits (-90.0 90.0)
           (-45.0 45.0)
  end
  begin
     id 29
     name rfingers
     direction -1 -4.49012e-011 -4.15056e-026   
     length 0.631992   
     axis 2.64841e-014 -90 -90   XYZ
    dof rx
    limits (0.0 90.0)
  end
  begin
     id 30
     name rthumb
     direction -0.707107 -6.3496e-011 0.707107   
     length 0.907418   
     axis -90 -45 -2.85299e-015   XYZ
    dof rx rz
    limits (-45.0 45.0)
           (-45.0 45.0)
  end
:hierarchy
  begin
    root lhipjoint rhipjoint lowerback
    lhipjoint lfemur
    lfemur ltibia
    ltibia lfoot
    lfoot ltoes
    rhipjoint rfemur
    rfemur rtibia
    rtibia rfoot
    rfoot rtoes
    lowerback upperback
    upperback thorax
    thorax lowerneck lclavicle rclavicle
    lowerneck upperneck
    upperneck head
    lclavicle lhumerus
    lhumerus lradius
    lradius lwrist
    lwrist lhand lthumb
    lhand lfingers
    rclavicle rhumerus
    rhumerus rradius
    rradius rwrist
    rwrist rhand rthumb
    rhand rfingers
  end

#!OML:ASF E:\Style3\Style3.ASF
:FULLY-SPECIFIED
:DEGREES
1392
root -2.17987 14.2591 2.59212 -309.903 129.787 -359.615
lowerback 40.1739 8.57477 -13.4164
upperback 8.43071 6.51346 -1.95002
thorax -10.3923 3.72656 1.78183
lowerneck -3.60814 -2.09934 1.08416
upperneck -21.6539 -2.43249 -4.48915
head -6.02673 -0.239191 -1.59346
rclavicle 7.31528e-014 7.53208e-014
rhumerus 30.7315 12.9673 -27.3205
rradius 132.943
rwrist 8.01184
rhand -9.62861 16.2889
rfingers 7.12502
rthumb 16.3413 -13.0426
lclavicle 5.34731e-014 3.99184e-014
lhumerus 19.7952 -10.6398 43.3133
lradius 139.287
lwrist 15.0595
lhand 3.09594 29.1094
lfingers 7.12502
lthumb 28.5522 56.9493
rfemur -101.716 1.13096 30.3729
rtibia 83.401
rfoot -31.8246 -38.0929
rtoes 8.58841
lfemur -107.954 -0.742477 2.3378
ltibia 68.2295
lfoot -13.9593 -9.78381
ltoes -28.9173
1393
root -2.14391 14.2696 2.61473 -309.703 130.452 -359.527
lowerback 40.4442 7.85608 -13.0521
upperback 8.41643 5.72257 -2.51764
thorax -10.33 3.39795 1.33467
lowerneck -3.69871 -1.84833 0.465181
upperneck -21.8403 -1.92022 -3.56372
head -6.04415 0.00633933 -1.21628
rclavicle -3.65764e-014 -8.54529e-014
rhumerus 31.8878 13.2056 -27.8492
rradius 132.085
rwrist 9.17159
rhand -7.72376 16.7219
rfingers 7.12502
rthumb 18.1746 -12.449
lclavicle 5.34731e-014 3.99184e-014
lhumerus 19.7952 -10.6398 43.3133
lradius 139.287
lwrist 15.0595
lhand 3.09594 29.1094
lfingers 7.12502
lthumb 28.5522 56.9493
rfemur -101.626 1.17333 30.7055
rtibia 83.2369
rfoot -32.0253 -38.2453
rtoes 9.56125
lfemur -108.008 -0.630686 2.42313
ltibia 67.9588
lfoot -13.8116 -10.3769
ltoes -28.1589
1394
root -2.10802 14.2729 2.63398 -309.434 131.189 -359.429
lowerback 40.4887 7.78771 -13.0333
upperback 8.47083 5.66388 -2.57825
thorax -10.2666 3.37713 1.28688
lowerneck -4.0457 -1.86037 0.617071
upperneck -21.8209 -1.8909 -3.47803
head -5.98019 0.0132968 -1.21846
rclavicle -1.01778e-013 3.09172e-014
rhumerus 31.8657 12.6267 -27.5779
rradius 131.681
rwrist 9.35908
rhand -5.44634 17.5718
rfingers 7.12502
rthumb 20.3645 -11.3804
lclavicle 5.34731e-014 3.99184e-014
lhumerus 19.7952 -10.6398 43.3133
lradius 139.287
lwrist 15.0595
lhand 3.09594 29.1094
lfingers 7.12502
lthumb 28.5522 56.9493
rfemur -101.635 1.14068 31.1759
rtibia 83.1201
rfoot -32.136 -38.406
rtoes 10.2634
lfemur -108.218 -0.526201 2.64155
ltibia 67.7356
lfoot -13.476 -11.0968
ltoes -26.7588
1395
root -2.07221 14.2757 2.65055 -309.231 131.883 -359.449
lowerback 40.4752 8.01625 -13.2289
upperback 8.52215 5.89927 -2.4416
thorax -10.244 3.48183 1.42505
lowerneck -4.34626 -1.97475 0.925754
upperneck -21.7938 -2.03413 -3.55869
head -5.92853 -0.0645512 -1.29355
rclavicle -6.59965e-014 7.21588e-014
rhumerus 31.6025 12.565 -26.9024
rradius 131.112
rwrist 9.69764
rhand -4.26421 17.9218
rfingers 7.12502
rthumb 21.5002 -10.9049
lclavicle -6.59965e-014 7.21588e-014
lhumerus 30.0893 -18.6421 49.0053
lradius 143.295
lwrist 31.8992
lhand 15.7486 28.3897
lfingers 7.12502
lthumb 40.5559 53.4456
rfemur -101.714 1.07275 31.5693
rtibia 83.0494
rfoot -32.3065 -38.5999
rtoes 10.2433
lfemur -108.464 -0.458833 2.7476
ltibia 67.5289
lfoot -13.0562 -11.8703
ltoes -25.3384
1396
root -2.03605 14.2782 2.66598 -308.994 132.474 -359.453
lowerback 40.3951 8.24884 -13.4547
upperback 8.55216 6.12412 -2.37254
thorax -10.2194 3.58243 1.51298
lowerneck -4.49526 -2.07623 1.2821
upperneck -21.864 -2.15828 -3.59059
head -5.93355 -0.138221 -1.36215
rclavicle -2.54444e-014 -1.39895e-014
rhumerus 31.1034 12.2629 -26.1098
rradius 131.04
rwrist 9.15184
rhand -3.61832 18.2369
rfingers 7.12502
rthumb 22.1204 -10.5177
lclavicle -2.54444e-014 -1.39895e-014
lhumerus 30.849 -18.4612 49.7622
lradius 142.824
lwrist 29.4969
lhand 13.5905 27.8127
lfingers 7.12502
lthumb 38.5232 53.4676
rfemur -101.827 1.07877 31.8937
rtibia 82.9914
rfoot -32.4313 -38.7789
rtoes 10.0566
lfemur -108.659 -0.3613 2.77595
ltibia 67.3196
lfoot -12.8466 -12.3949
ltoes -25.1052
1397
root -2.00934 14.2753 2.67703 -308.779 133.106 -359.646
lowerback 40.2655 8.35813 -13.5451
upperback 8.56308 6.25424 -2.3114
thorax -10.1905 3.63892 1.57374
lowerneck -4.51624 -2.19935 1.6322
upperneck -22.0537 -2.32474 -3.67974
head -6.00041 -0.222563 -1.44721
rclavicle -2.22639e-014 1.25731e-014
rhumerus 30.8985 13.0339 -25.5983
rradius 130.564
rwrist 9.24748
rhand -2.66412 18.7566
rfingers 7.12502
rthumb 23.0363 -9.88668
lclavicle -2.22639e-014 1.25731e-014
lhumerus 31.2061 -18.4717 50.3676
lradius 142.406
lwrist 26.0267
lhand 11.1443 26.2812
lfingers 7.12502
lthumb 36.2109 52.5456
rfemur -102.143 0.904323 32.1978
rtibia 82.9519
rfoot -32.4617 -38.8666
rtoes 9.87514
lfemur -109.095 -0.368866 2.76086
ltibia 67.1091
lfoot -12.5231 -12.949
ltoes -23.9164
1398
root -1.98969 14.2663 2.68304 -308.503 133.943 -359.854
lowerback 40.1235 8.282 -13.2953
upperback 8.58747 6.30025 -2.2273
thorax -10.1301 3.65261 1.53808
lowerneck -4.52106 -2.33259 1.98181
upperneck -22.3168 -2.51092 -3.81842
head -6.09561 -0.307843 -1.54843
rclavicle 3.18055e-015 3.96327e-014
rhumerus 30.6052 13.3933 -24.7714
rradius 130.557
rwrist 8.64014
rhand -1.69988 18.9766
rfingers 7.12502
rthumb 23.9612 -9.5482
lclavicle 3.18055e-015 3.96327e-014
lhumerus 31.4118 -18.4636 50.9835
lradius 141.879
lwrist 22.126
lhand 8.51304 24.7702
lfingers 7.12502
lthumb 33.7147 51.6169
rfemur -102.591 0.54816 32.6979
rtibia 82.9312
rfoot -32.2746 -39.0432
rtoes 9.43127
lfemur -109.706 -0.472942 2.84307
ltibia 66.8851
lfoot -12.0346 -13.5444
ltoes -22.4452
1399
root -1.96382 14.2643 2.69109 -308.36 134.693 -359.973
lowerback 40.1733 8.02405 -12.9805
upperback 8.6043 6.11587 -2.29963
thorax -10.0911 3.57304 1.39068
lowerneck -4.52478 -2.3612 1.85132
upperneck -22.5269 -2.47854 -3.49352
head -6.15722 -0.286648 -1.42665
rclavicle 1.74931e-014 -1.86858e-014
rhumerus 30.6807 13.7055 -24.0019
rradius 130.855
rwrist 7.53062
rhand -0.760924 19.1266
rfingers 7.12502
rthumb 24.8613 -9.27683
lclavicle 1.74931e-014 -1.86858e-014
lhumerus 31.3095 -17.8596 51.5214
lradius 141.241
lwrist 19.3652
lhand 6.98129 24.3418
lfingers 7.12502
lthumb 32.2579 51.4957
rfemur -102.782 0.265921 33.186
rtibia 82.9037
rfoot -32.0654 -39.3404
rtoes 8.7616
lfemur -109.986 -0.572689 2.81966
ltibia 66.6507
lfoot -11.7489 -14.0213
ltoes -21.7729
1400
root -1.93387 14.2597 2.69963 -308.226 135.303 -360.065
lowerback 40.2717 7.83391 -12.814
upperback 8.56873 5.93474 -2.36211
thorax -10.1331 3.49745 1.315
lowerneck -4.4153 -2.40001 1.48803
upperneck -22.7664 -2.44666 -3.05716
head -6.24304 -0.255264 -1.22859
rclavicle 9.85972e-014 4.79071e-014
rhumerus 30.891 14.3284 -23.3366
rradius 131.109
rwrist 6.54709
rhand 0.0922352 19.1974
rfingers 7.12502
rthumb 25.6787 -9.09059
lclavicle 9.85972e-014 4.79071e-014
lhumerus 30.8848 -16.3645 52.2113
lradius 141.129
lwrist 19.4547
lhand 6.99334 25.1744
lfingers 7.12502
lthumb 32.2694 52.326
rfemur -102.942 0.0570497 33.6404
rtibia 82.9259
rfoot -32.0137 -39.5722
rtoes 8.23368
lfemur -110.142 -0.676697 2.86411
ltibia 66.4832
lfoot -12.0108 -14.0943
ltoes -23.024
1401
root -1.90547 14.2484 2.706 -308.125 135.838 -360.21
lowerback 40.4078 7.60242 -12.643
upperback 8.49614 5.69115 -2.40685
thorax -10.2266 3.39441 1.27878
lowerneck -4.28786 -2.42398 0.815148
upperneck -22.966 -2.38617 -2.54524
head -6.31355 -0.192181 -0.953929
rclavicle -8.11041e-014 6.11263e-015
rhumerus 31.313 15.268 -22.7628
rradius 131.246
rwrist 5.84793
rhand 0.764368 19.067
rfingers 7.12502
rthumb 26.3223 -9.12647
lclavicle -8.11041e-014 6.11263e-015
lhumerus 30.4963 -14.7524 53.1092
lradius 140.994
lwrist 20.9404
lhand 8.34964 26.422
lfingers 7.12502
lthumb 33.5594 53.3025
rfemur -103.166 -0.210259 34.1187
rtibia 83.0119
rfoot -32.0913 -39.6216
rtoes 7.99407
lfemur -110.374 -0.781594 2.94422
ltibia 66.3763
lfoot -12.0791 -14.2065
ltoes -23.4812
1402
root -1.87339 14.2317 2.70942 -307.98 136.343 -360.162
lowerback 40.5668 7.46055 -12.5392
upperback 8.4346 5.53021 -2.43981
thorax -10.325 3.32834 1.24944
lowerneck -4.17075 -2.38414 0.406891
upperneck -23.1567 -2.25648 -2.16015
head -6.38367 -0.109767 -0.767527
rclavicle -9.54166e-015 7.30534e-015
rhumerus 31.7418 16.1413 -22.4478
rradius 131.339
rwrist 5.23077
rhand 1.47759 19.1319
rfingers 7.12502
rthumb 27.0049 -8.95774
lclavicle -9.54166e-015 7.30534e-015
lhumerus 30.1502 -13.4954 53.779
lradius 140.768
lwrist 22.0395
lhand 9.6543 27.4405
lfingers 7.12502
lthumb 34.7984 54.0434
rfemur -103.253 -0.337563 34.6176
rtibia 83.126
rfoot -32.2609 -39.6844
rtoes 7.78252
lfemur -110.608 -0.66451 2.78298
ltibia 66.3817
lfoot -11.7636 -14.8628
ltoes -22.2931
1403
root -1.8459 14.2321 2.71535 -307.825 136.827 -360.167
lowerback 40.6092 7.32922 -12.465
upperback 8.41049 5.39103 -2.52501
thorax -10.3421 3.27152 1.17968
lowerneck -4.08105 -2.3266 0.340831
upperneck -23.3843 -2.12715 -1.97298
head -6.46818 -0.0380263 -0.703703
rclavicle -2.94201e-014 -4.4975e-014
rhumerus 31.9648 16.6369 -22.4032
rradius 131.619
rwrist 4.47232
rhand 2.56615 19.4811
rfingers 7.12502
rthumb 28.0459 -8.44277
lclavicle -2.94201e-014 -4.4975e-014
lhumerus 29.8898 -12.7821 54.0361
lradius 140.511
lwrist 22.352
lhand 10.3999 28.0043
lfingers 7.12502
lthumb 35.5056 54.4408
rfemur -103.341 -0.47393 35.0273
rtibia 83.148
rfoot -32.5944 -39.6248
rtoes 7.97667
lfemur -110.782 -0.63485 2.79453
ltibia 66.2965
lfoot -11.6803 -15.2371
ltoes -21.8037
1404
root -1.82212 14.2315 2.72129 -307.696 137.333 -360.259
lowerback 40.631 7.11635 -12.3077
upperback 8.39363 5.18969 -2.62716
thorax -10.3373 3.18638 1.08134
lowerneck -3.96711 -2.28718 0.167615
upperneck -23.7401 -2.01998 -1.82033
head -6.59863 0.0458379 -0.633631
rclavicle -5.56597e-015 8.31914e-014
rhumerus 32.1683 16.91 -22.5114
rradius 131.902
rwrist 3.8523
rhand 3.63386 20.0181
rfingers 7.12502
rthumb 29.0661 -7.7343
lclavicle -5.56597e-015 8.31914e-014
lhumerus 29.6434 -12.2459 54.1184
lradius 140.341
lwrist 22.5181
lhand 11.1502 28.2632
lfingers 7.12502
lthumb 36.2164 54.5263
rfemur -103.515 -0.686066 35.4275
rtibia 83.1745
rfoot -32.7632 -39.6205
rtoes 8.02143
lfemur -111.025 -0.682643 2.84681
ltibia 66.2194
lfoot -11.7405 -15.562
ltoes -21.7999
1405
root -1.7962 14.2325 2.7277 -307.639 137.681 -360.317
lowerback 40.7221 6.99623 -12.3187
upperback 8.37834 5.02612 -2.72451
thorax -10.3577 3.12171 1.04714
lowerneck -3.9397 -2.24316 -0.00799473
upperneck -24.0372 -1.90565 -1.68069
head -6.69618 0.132992 -0.567808
rclavicle -2.06736e-014 -6.24681e-014
rhumerus 32.3599 17.1179 -22.641
rradius 132.222
rwrist 2.95343
rhand 4.59169 20.4664
rfingers 7.12502
rthumb 29.9804 -7.12439
lclavicle -2.06736e-014 -6.24681e-014
lhumerus 29.4106 -11.8241 54.035
lradius 140.264
lwrist 22.4705
lhand 11.9155 28.4802
lfingers 7.12502
lthumb 36.9407 54.56
rfemur -103.564 -0.850903 35.8088
rtibia 83.1908
rfoot -32.8464 -39.6432
rtoes 7.87482
lfemur -111.12 -0.663781 2.75243
ltibia 66.153
lfoot -11.6712 -15.9228
ltoes -21.5649
1406
root -1.76848 14.2265 2.73029 -307.53 138.025 -360.189
lowerback 40.848 6.93953 -12.3418
upperback 8.3532 4.92913 -2.78289
thorax -10.41 3.08557 1.02791
lowerneck -4.00038 -2.18717 -0.107646
upperneck -24.1418 -1.7661 -1.44666
head -6.71594 0.203622 -0.483248
rclavicle -3.89618e-014 -1.80894e-014
rhumerus 32.59 17.2872 -22.85
rradius 132.596
rwrist 1.44212
rhand 5.65929 20.5625
rfingers 7.12502
rthumb 30.9986 -6.83925
lclavicle -3.89618e-014 -1.80894e-014
lhumerus 29.1323 -11.4756 53.8064
lradius 140.264
lwrist 22.135
lhand 12.8596 28.691
lfingers 7.12502
lthumb 37.8333 54.5354
rfemur -103.515 -0.956487 36.3421
rtibia 83.2434
rfoot -32.9775 -39.6083
rtoes 7.66463
lfemur -111.183 -0.534263 2.67385
ltibia 66.1826
lfoot -11.4771 -16.3637
ltoes -20.7162
